<svg width="180" height="181" viewBox="0 0 180 181" fill="none" xmlns="http://www.w3.org/2000/svg">
<circle cx="90" cy="90.9502" r="90" fill="#FFCC00"/>
<path d="M11 95.8105H32.2317L31.0721 97.3984H11V95.8105Z" fill="#D40511"/>
<path d="M11 92.8643H34.3887L33.227 94.4499H11V92.8643Z" fill="#D40511"/>
<path d="M11 98.7588H30.076L28.9215 100.336H11V98.7588Z" fill="#D40511"/>
<path d="M168 97.3983H146.851L148.01 95.8115H168V97.3983Z" fill="#D40511"/>
<path d="M168 100.336L144.701 100.338L145.855 98.7588H168V100.336Z" fill="#D40511"/>
<path d="M150.166 92.8643H168V94.4509L149.005 94.4521L150.166 92.8643Z" fill="#D40511"/>
<path d="M31.5645 100.336L41.6397 86.5645H54.1422C55.5241 86.5645 55.506 87.0923 54.8307 88.0131C54.1448 88.9479 52.9776 90.5554 52.2791 91.5044C51.9246 91.9865 51.2833 92.8648 53.4076 92.8648H70.1571C68.7641 94.7846 64.2458 100.336 56.1326 100.336H31.5645Z" fill="#D40511"/>
<path d="M89.2646 92.8633L83.8014 100.336H69.3892C69.3892 100.336 74.8499 92.8644 74.8548 92.8644L89.2646 92.8633Z" fill="#D40511"/>
<path d="M110.105 92.8652L104.639 100.337H90.2324C90.2324 100.337 95.6936 92.8652 95.6985 92.8652H110.105Z" fill="#D40511"/>
<path d="M114.792 92.8652C114.793 92.8652 113.74 94.3138 113.228 95.0092C111.418 97.4699 113.018 100.337 118.924 100.337H142.062L147.527 92.8652H114.792Z" fill="#D40511"/>
<path d="M38.6098 78L33.5938 84.8564H60.9316C62.3133 84.8564 62.2952 85.3842 61.6199 86.305C60.9341 87.2387 59.7861 88.8647 59.0876 89.8137C58.733 90.2948 58.0918 91.173 60.2161 91.173H71.3955C71.3955 91.173 73.1974 88.7058 74.7079 86.6434C76.7629 83.8378 74.8861 78 67.5399 78H38.6098Z" fill="#D40511"/>
<path d="M111.343 91.173H76.0923L85.7315 78H100.139L94.615 85.5529H101.045L106.574 78H120.979L111.343 91.173Z" fill="#D40511"/>
<path d="M140.932 78L131.295 91.173H116.028C116.028 91.173 125.669 78 125.673 78H140.932Z" fill="#D40511"/>
<path d="M51.4857 116.953C50.2774 116.953 49.3135 116.609 48.5942 115.923C47.8748 115.235 47.5151 114.274 47.5151 113.038V112.403C47.5151 111.188 47.8483 110.231 48.5158 109.534C49.1827 108.836 50.073 108.487 51.1866 108.487C52.3105 108.487 53.1798 108.836 53.7942 109.534C54.4086 110.231 54.7158 111.198 54.7158 112.435V113.418H49.7841C49.9101 114.549 50.5348 115.114 51.6594 115.114C52.0266 115.114 52.3658 115.061 52.6757 114.956C52.9851 114.85 53.2923 114.697 53.5974 114.496L54.5271 115.939C54.1274 116.245 53.6736 116.491 53.1641 116.676C52.6546 116.86 52.0948 116.953 51.4857 116.953ZM51.139 110.326C50.6874 110.326 50.3515 110.472 50.1309 110.762C49.9102 111.053 49.7842 111.463 49.7528 111.991H52.5258C52.4944 111.463 52.3684 111.053 52.1478 110.762C51.9271 110.472 51.5906 110.326 51.139 110.326Z" fill="#D40511"/>
<path d="M60.7355 117C59.7689 117 58.9365 116.797 58.2382 116.39C57.5394 115.983 56.9985 115.404 56.615 114.654C56.2315 113.903 56.04 113.016 56.04 111.991V111.071C56.04 110.046 56.2315 109.158 56.615 108.408C56.9985 107.658 57.5394 107.079 58.2382 106.672C58.9364 106.265 59.7689 106.062 60.7355 106.062C62.1958 106.062 63.4037 106.595 64.3599 107.663L62.9731 109.169C62.3429 108.471 61.6339 108.122 60.8458 108.122C60.0789 108.122 59.4883 108.384 59.0733 108.907C58.6579 109.43 58.4508 110.184 58.4508 111.166V111.895C58.4508 112.868 58.6558 113.618 59.0653 114.147C59.4752 114.675 60.0632 114.939 60.8301 114.939C61.2293 114.939 61.6155 114.86 61.9882 114.701C62.3608 114.543 62.721 114.279 63.0678 113.909L64.4546 115.415C63.9922 115.943 63.4459 116.34 62.8157 116.604C62.1851 116.868 61.4922 117 60.7355 117Z" fill="#D40511"/>
<path d="M69.355 116.953C68.1575 116.953 67.2142 116.604 66.5262 115.907C65.8382 115.209 65.4941 114.253 65.4941 113.038V112.403C65.4941 111.188 65.8382 110.231 66.5262 109.534C67.2142 108.836 68.1575 108.487 69.355 108.487C70.5525 108.487 71.4952 108.836 72.1832 109.534C72.8712 110.231 73.2153 111.188 73.2153 112.403V113.038C73.2153 114.253 72.8712 115.209 72.1832 115.907C71.4952 116.604 70.5525 116.953 69.355 116.953ZM69.355 115.035C69.8482 115.035 70.2344 114.866 70.513 114.527C70.791 114.19 70.9306 113.677 70.9306 112.99V112.451C70.9306 111.764 70.791 111.252 70.513 110.913C70.2345 110.575 69.8482 110.405 69.355 110.405C68.8612 110.405 68.475 110.575 68.1964 110.913C67.9183 111.252 67.7788 111.764 67.7788 112.451V112.99C67.7788 113.677 67.9183 114.19 68.1964 114.527C68.4749 114.866 68.8612 115.035 69.355 115.035Z" fill="#D40511"/>
<path d="M74.9009 116.762V108.677H77.0595V110.088C77.3013 109.623 77.6242 109.245 78.0288 108.954C78.4328 108.664 78.9294 108.519 79.5178 108.519C80.6206 108.519 81.3509 109.052 81.7078 110.12C81.9707 109.655 82.3119 109.272 82.7322 108.97C83.1525 108.669 83.6668 108.519 84.2764 108.519C85.0537 108.519 85.6524 108.799 86.0727 109.359C86.493 109.919 86.7029 110.712 86.7029 111.737V116.762H84.4182V111.879C84.4182 111.446 84.329 111.1 84.1505 110.841C83.9715 110.582 83.6832 110.453 83.284 110.453C82.979 110.453 82.714 110.529 82.4878 110.682C82.2623 110.836 82.0811 111.023 81.9443 111.245V116.762H79.6596V111.879C79.6596 111.446 79.5649 111.1 79.3762 110.841C79.1869 110.582 78.8981 110.453 78.5092 110.453C78.2149 110.453 77.9553 110.527 77.7292 110.675C77.5031 110.823 77.3219 111.002 77.1856 111.213V116.762L74.9009 116.762Z" fill="#D40511"/>
<path d="M88.6885 116.762V108.677H90.8477V110.088C91.089 109.623 91.4123 109.245 91.8169 108.954C92.2204 108.664 92.717 108.519 93.3055 108.519C94.4089 108.519 95.1391 109.052 95.496 110.12C95.7578 109.655 96.0997 109.272 96.5205 108.97C96.9402 108.669 97.4551 108.519 98.0641 108.519C98.8419 108.519 99.4401 108.799 99.8609 109.359C100.281 109.919 100.49 110.712 100.49 111.737V116.762H98.2058V111.879C98.2058 111.446 98.1171 111.1 97.9386 110.841C97.759 110.582 97.4701 110.453 97.071 110.453C96.767 110.453 96.5019 110.529 96.2759 110.682C96.0499 110.836 95.8681 111.023 95.7318 111.245V116.762H93.4471V111.879C93.4471 111.446 93.353 111.1 93.1637 110.841C92.9744 110.582 92.6856 110.453 92.2972 110.453C92.003 110.453 91.7434 110.527 91.5173 110.675C91.2912 110.823 91.1095 111.002 90.9731 111.213V116.762L88.6885 116.762Z" fill="#D40511"/>
<path d="M106.054 116.953C104.845 116.953 103.881 116.609 103.162 115.923C102.442 115.235 102.083 114.274 102.083 113.038V112.403C102.083 111.188 102.416 110.231 103.083 109.534C103.751 108.836 104.641 108.487 105.754 108.487C106.878 108.487 107.748 108.836 108.362 109.534C108.977 110.231 109.284 111.198 109.284 112.435V113.418H104.352C104.478 114.549 105.103 115.114 106.227 115.114C106.595 115.114 106.933 115.061 107.243 114.956C107.553 114.85 107.86 114.697 108.165 114.496L109.095 115.939C108.695 116.245 108.241 116.491 107.732 116.676C107.222 116.86 106.663 116.953 106.054 116.953ZM105.707 110.326C105.255 110.326 104.919 110.472 104.698 110.762C104.478 111.053 104.352 111.463 104.32 111.991H107.094C107.062 111.463 106.936 111.053 106.715 110.762C106.495 110.472 106.159 110.326 105.707 110.326Z" fill="#D40511"/>
<path d="M110.891 116.762V108.677H113.05V110.691C113.165 110.332 113.32 109.99 113.514 109.668C113.709 109.346 113.961 109.082 114.271 108.875C114.58 108.669 114.967 108.566 115.429 108.566C115.524 108.566 115.61 108.569 115.689 108.575C115.768 108.58 115.865 108.593 115.981 108.614V110.738C115.897 110.728 115.805 110.72 115.705 110.715C115.605 110.709 115.508 110.707 115.413 110.707C114.836 110.707 114.363 110.818 113.995 111.04C113.627 111.262 113.354 111.499 113.176 111.753V116.762L110.891 116.762Z" fill="#D40511"/>
<path d="M120.597 116.953C119.82 116.953 119.145 116.792 118.572 116.47C118 116.147 117.559 115.692 117.249 115.106C116.939 114.519 116.784 113.83 116.784 113.038V112.403C116.784 111.621 116.939 110.937 117.249 110.35C117.559 109.764 117.997 109.307 118.564 108.979C119.132 108.652 119.794 108.487 120.55 108.487C121.096 108.487 121.614 108.583 122.102 108.773C122.591 108.963 123.008 109.233 123.355 109.582L122.22 111.04C121.8 110.638 121.332 110.438 120.818 110.438C120.282 110.438 119.862 110.617 119.557 110.976C119.252 111.336 119.1 111.827 119.1 112.451V112.99C119.1 113.613 119.258 114.105 119.573 114.464C119.888 114.823 120.319 115.003 120.865 115.003C121.38 115.003 121.868 114.802 122.33 114.401L123.449 115.859C122.693 116.588 121.742 116.953 120.597 116.953Z" fill="#D40511"/>
<path d="M128.255 116.953C127.046 116.953 126.083 116.609 125.363 115.923C124.643 115.235 124.284 114.274 124.284 113.038V112.403C124.284 111.188 124.617 110.231 125.284 109.534C125.952 108.836 126.842 108.487 127.955 108.487C129.079 108.487 129.949 108.836 130.563 109.534C131.178 110.231 131.485 111.198 131.485 112.435V113.418H126.553C126.679 114.549 127.304 115.114 128.428 115.114C128.796 115.114 129.134 115.061 129.444 114.956C129.754 114.85 130.061 114.697 130.366 114.496L131.296 115.939C130.897 116.245 130.442 116.491 129.933 116.676C129.423 116.86 128.864 116.953 128.255 116.953ZM127.908 110.326C127.457 110.326 127.12 110.472 126.899 110.762C126.679 111.053 126.553 111.463 126.521 111.991H129.295C129.263 111.463 129.137 111.053 128.916 110.762C128.696 110.472 128.36 110.326 127.908 110.326Z" fill="#D40511"/>
</svg>
