<svg width="181" height="180" viewBox="0 0 181 180" fill="none" xmlns="http://www.w3.org/2000/svg">
<circle cx="90.7642" cy="90.0098" r="90" fill="#F9C100"/>
<path fill-rule="evenodd" clip-rule="evenodd" d="M86.9796 115.749C48.0457 115.714 32.9885 81.8629 35.0125 56.1774L46.4515 52.5598C44.5876 67.1396 49.0914 77.6714 52.2334 82.4998C48.5212 61.8505 64.0861 45.1211 83.6075 45.1211C101.159 45.0908 115.675 57.9435 115.611 76.3178C118.192 69.3052 119.961 58.599 120.325 51.1418L146.694 57.7097C144.593 88.6306 121.378 115.749 86.9796 115.749ZM124.853 133.622L109.877 118.458H124.706L139.7 133.622H124.853ZM104.825 133.622L89.8125 118.458H104.684L119.673 133.622H104.825ZM71.3813 133.622H56.5158L71.5093 118.458H86.3723L71.3813 133.622ZM36.4756 133.622L51.4852 118.458H66.329L51.3392 133.622H36.4756ZM83.6521 55.8904C72.0213 55.8904 62.5883 65.3364 62.5883 76.9702C62.5883 88.6015 72.022 98.0468 83.6521 98.0468C95.3155 98.0468 104.747 88.6009 104.747 76.9702C104.747 65.3364 95.3155 55.8904 83.6521 55.8904Z" fill="#34312F"/>
</svg>
