<svg width="181" height="181" viewBox="0 0 181 181" fill="none" xmlns="http://www.w3.org/2000/svg">
<circle cx="90.7642" cy="90.1152" r="90" fill="#DC0133"/>
<path d="M109.909 103.353C107.486 103.995 104.329 104.312 101.584 104.312C94.5392 104.312 89.874 100.563 89.874 93.7011C89.874 87.2066 94.2192 82.9997 100.579 82.9997C101.996 82.9997 103.505 83.1801 104.42 83.6392V74.2119H109.909V103.353ZM104.42 88.4871C103.551 88.0755 102.408 87.8467 101.033 87.8467C97.6965 87.8467 95.4543 89.906 95.4543 93.519C95.4543 97.4079 97.8781 99.6043 101.767 99.6043C102.453 99.6043 103.505 99.5572 104.42 99.3754V88.4871ZM154.953 103.353C152.527 103.995 149.371 104.312 146.626 104.312C139.582 104.312 134.914 100.563 134.914 93.7011C134.914 87.2066 139.261 82.9997 145.621 82.9997C147.039 82.9997 148.548 83.1801 149.463 83.6392V74.2119H154.952V103.353H154.953ZM149.463 88.4871C148.593 88.0755 147.449 87.8467 146.077 87.8467C142.739 87.8467 140.497 89.906 140.497 93.519C140.497 97.4079 142.921 99.6043 146.81 99.6043C147.495 99.6043 148.548 99.5572 149.463 99.3754V88.4871ZM118.542 88.442C119.456 88.0753 120.735 87.9393 121.833 87.9393C125.219 87.9393 127.552 89.9057 127.552 93.4267C127.552 97.5802 124.968 99.4585 121.512 99.507V104.31C121.603 104.31 121.695 104.313 121.788 104.313C128.877 104.313 133.133 100.335 133.133 93.2446C133.133 86.7948 128.605 82.9997 121.926 82.9997C118.541 82.9997 115.201 83.7774 113.006 84.6914V112.093H118.542V88.442Z" fill="white"/>
<path d="M60.0824 87.0961C59.8553 87.2286 59.4992 87.2182 59.2775 87.0811L57.9726 86.3054C57.8664 86.2396 57.7689 86.1343 57.6953 86.0076C57.6909 86.0004 57.6866 85.9929 57.6823 85.9854C57.5989 85.8494 57.5516 85.706 57.5466 85.5744L57.5135 84.053C57.5037 83.7968 57.6728 83.4842 57.9007 83.3512L73.5885 74.2119L51.5742 62.2137C51.3318 62.0792 51.0121 62.0143 50.692 62.0137C50.3717 62.0131 50.0514 62.0798 49.8087 62.2137L27.7942 74.2122L52.4561 88.569C52.6847 88.694 52.8584 88.9906 52.8584 89.2584V110.202C52.8584 110.465 52.6702 110.767 52.44 110.89L51.1128 111.627C51.0025 111.686 50.8623 111.717 50.7157 111.717C50.7073 111.717 50.6987 111.717 50.6903 111.717C50.531 111.721 50.383 111.69 50.267 111.627L48.9355 110.89C48.7092 110.77 48.5242 110.466 48.5242 110.202L48.5245 91.5318C48.5127 91.3951 48.4125 91.2283 48.3029 91.1654L26.5752 78.5172V103.291C26.5749 103.846 26.9659 104.529 27.445 104.81L49.8223 118.007C50.0615 118.147 50.3766 118.217 50.6915 118.216C51.0066 118.215 51.3217 118.149 51.5604 118.007L73.9411 104.81C74.4184 104.527 74.8083 103.846 74.8077 103.291V78.5175L60.0824 87.0961Z" fill="white"/>
</svg>
