<svg width="181" height="181" viewBox="0 0 181 181" fill="none" xmlns="http://www.w3.org/2000/svg">
<circle cx="90.772" cy="90.8569" r="90" fill="#290B7C"/>
<g clip-path="url(#clip0_4405_37210)">
<path d="M148.588 110.734L143.013 104.322L137.487 110.734H125.859L137.224 97.6412L125.859 84.5448H137.85L143.481 90.9069L148.9 84.5448H160.472L149.164 97.5862L160.629 110.734H148.588ZM103.531 110.734V69.478H125.86V78.6742H112.989V84.5454H125.86V93.394H112.989V101.515H125.86V110.734H103.531V110.734Z" fill="#FF5A00"/>
<path d="M94.1088 69.4785V86.3627H94.0046C91.9193 83.9052 89.3126 83.0483 86.2906 83.0483C80.0978 83.0483 75.4322 87.3683 73.7948 93.0754C71.9268 86.7856 67.1101 82.9304 59.9686 82.9304C54.1676 82.9304 49.5888 85.5991 47.197 89.9493V84.5441H35.2087V78.6747H48.2927V69.4804H24.522V110.734H35.2081V93.3939H45.8594C45.5313 94.7273 45.3676 96.0978 45.3712 97.4731C45.3712 106.075 51.7813 112.12 59.9655 112.12C66.8452 112.12 71.3825 108.805 73.7803 102.769H64.6214C63.3837 104.585 62.4428 105.122 59.9661 105.122C57.0952 105.122 54.6179 102.552 54.6179 99.5103H73.2668C74.0759 106.344 79.2682 112.236 86.3941 112.236C89.4679 112.236 92.2823 110.686 94.0028 108.067H94.1064V110.74H103.528V69.4804H94.1082V69.4785H94.1088ZM54.9159 93.5174C55.5113 90.8956 57.4931 89.1826 59.9668 89.1826C62.6908 89.1826 64.5721 90.8426 65.0657 93.5174H54.9153H54.9159ZM88.3904 104.456C84.9186 104.456 82.761 101.139 82.761 97.6744C82.761 93.9705 84.6387 90.4123 88.3904 90.4123C92.142 90.4123 93.8349 93.9723 93.8349 97.6744C93.8349 101.183 92.1926 104.456 88.3904 104.456Z" fill="white"/>
</g>
<defs>
<clipPath id="clip0_4405_37210">
<rect width="138.5" height="42.7799" fill="white" transform="translate(24.522 69.4673)"/>
</clipPath>
</defs>
</svg>
