<svg width="181" height="181" viewBox="0 0 181 181" fill="none" xmlns="http://www.w3.org/2000/svg">
<circle cx="90.772" cy="90.8687" r="90" fill="#341B14"/>
<path d="M90.7728 144.855C91.7036 144.388 115.905 133.872 123.584 127.563C131.496 121.02 135.685 111.673 135.685 100.456V47.8791L134.987 47.6454C115.672 37.13 91.7036 37.831 90.5401 37.831C89.6093 37.831 65.6407 37.13 46.3262 47.6454L45.8608 47.8791V100.69C45.8608 111.906 50.0495 121.254 57.9615 127.796C65.6407 134.106 89.842 144.621 90.7728 144.855Z" fill="#341B14"/>
<path d="M90.772 146.024C90.772 146.024 65.1745 134.807 57.2625 128.498C48.8852 121.488 44.9292 111.907 44.9292 100.924V46.2437C65.1745 35.2609 90.772 36.1956 90.772 36.1956C90.772 36.1956 116.369 35.2609 136.615 46.2437V100.69C136.615 111.673 132.659 121.254 124.281 128.264C116.369 134.807 90.772 146.024 90.772 146.024ZM48.6525 100.924C48.6525 111.206 52.3757 119.618 59.5896 125.46C66.1053 130.835 85.4198 139.481 90.772 141.817C96.1242 139.481 115.671 130.601 121.954 125.46C129.168 119.618 132.891 110.972 132.891 100.924V47.1784C105.898 44.6079 73.7845 46.01 48.6525 69.3776V100.924Z" fill="#FFB406"/>
<path d="M116.604 93.2127C120.094 95.3158 121.49 96.7179 121.723 99.2883C121.723 102.092 119.861 103.728 116.836 103.728C114.277 103.728 111.251 102.326 109.157 100.457V107.934C111.717 109.336 114.742 110.505 118 110.505C125.912 110.505 129.635 104.897 129.635 99.7557C129.868 95.0821 128.471 91.3433 121.723 87.3708C118.698 85.5014 116.371 84.333 116.371 81.5289C116.371 78.7248 118.931 77.5564 121.025 77.5564C123.817 77.5564 126.61 79.1921 128.239 80.8279V73.8176C126.843 72.6492 123.817 71.0134 119.396 71.2471C114.044 71.4808 108.459 75.2196 108.459 81.7626C108.692 86.2024 110.088 89.4739 116.604 93.2127ZM89.1445 110.037C89.8426 110.271 91.0061 110.505 92.8677 110.505C101.943 110.505 107.063 102.326 107.063 90.6423C107.063 78.7248 101.71 71.4808 92.1696 71.4808C87.7482 71.4808 84.2577 72.4155 81.2325 74.2849V127.096H89.1445V110.037ZM89.1445 78.2574C89.8426 78.0237 91.0061 77.5564 91.9369 77.5564C96.591 77.5564 98.4526 81.2952 98.4526 90.4086C98.4526 99.2883 96.1256 103.494 91.4715 103.494C90.308 103.494 89.3772 103.261 88.9117 103.027V78.2574H89.1445ZM64.7105 110.505C69.5973 110.505 73.786 109.336 76.8111 107.233V71.9482H68.6665V102.56C67.7356 103.261 66.5721 103.494 64.9432 103.494C61.2199 103.494 60.7545 99.9893 60.7545 97.8863V71.9482H52.6099V97.4189C52.6099 106.065 56.7985 110.505 64.7105 110.505ZM118.931 142.051V147.426H119.861V145.323H120.094L121.49 147.426H122.654C122.654 147.426 121.258 145.323 121.025 145.089C121.723 144.855 122.188 144.388 122.188 143.687C122.188 142.986 121.723 142.051 120.327 142.051H118.931ZM120.327 142.752C121.025 142.752 121.258 143.22 121.258 143.453C121.258 143.921 121.025 144.388 120.094 144.388H119.861V142.752H120.327Z" fill="#FFB406"/>
<path d="M124.048 144.622C124.048 146.491 122.419 148.127 120.558 148.127C118.696 148.127 117.067 146.491 117.067 144.622C117.067 142.752 118.696 141.116 120.558 141.116C122.652 141.116 124.048 142.752 124.048 144.622ZM120.558 140.182C118.231 140.182 116.136 142.051 116.136 144.622C116.136 146.958 117.998 149.061 120.558 149.061C122.885 149.061 124.979 147.192 124.979 144.622C124.979 142.285 122.885 140.182 120.558 140.182Z" fill="#FFB406"/>
</svg>
